<?xml version="1.0" encoding="iso-8859-1"?>
<!-- Uploaded to: SVG Repo, www.svgrepo.com, Generator: SVG Repo Mixer Tools -->
<svg height="800px" width="800px" version="1.1" id="Layer_1" xmlns="http://www.w3.org/2000/svg" xmlns:xlink="http://www.w3.org/1999/xlink" 
	 viewBox="0 0 512.004 512.004" xml:space="preserve">
<path style="fill:#FF4D30;" d="M193.479,256.03C193.479,143.783,108.819,50.949,0,37.99v434.992h7.848
	C112.86,456.599,193.479,365.567,193.479,256.03z"/>
<g>
	<path style="fill:#D33F2F;" d="M0,185.138h181.731c-1.941-5.674-4.11-11.242-6.493-16.696H0V185.138z"/>
	<path style="fill:#D33F2F;" d="M55.338,293.521h-4.345c-4.61,0-8.348-3.736-8.348-8.348c0-4.611,3.738-8.348,8.348-8.348h4.345
		c4.61,0,8.348,3.736,8.348,8.348C63.686,289.783,59.949,293.521,55.338,293.521z"/>
	<path style="fill:#D33F2F;" d="M206.807,293.521H83.919c-4.61,0-8.348-3.736-8.348-8.348c0-4.611,3.738-8.348,8.348-8.348h122.888
		c4.61,0,8.348,3.736,8.348,8.348C215.155,289.783,211.417,293.521,206.807,293.521z"/>
	<path style="fill:#D33F2F;" d="M0,401.897h137.872c4.756-5.339,9.257-10.91,13.481-16.696H0V401.897z"/>
</g>
<circle style="fill:#8C6E51;" cx="479.844" cy="256.001" r="32.16"/>
<circle style="fill:#90C8EC;" cx="338.354" cy="256.001" r="71.947"/>
<path style="fill:#FF9737;" d="M3.062,502.676c1.631,1.417,3.709,2.185,5.842,2.185c0.393,0,0.787-0.029,1.182-0.081
	c0.102-0.016,0.205-0.029,0.306-0.043c40.515-5.729,79.595-21.684,113.031-46.158c33.527-24.542,60.66-57.129,78.478-94.247
	c0.033-0.071,0.069-0.14,0.102-0.211c0.06-0.126,0.117-0.253,0.171-0.382l9.69-23.277c0.053-0.128,0.102-0.258,0.15-0.39
	c0.187-0.524,0.362-1.052,0.544-1.577c0.394-1.129,0.788-2.255,1.165-3.388c0.249-0.75,0.484-1.507,0.727-2.258
	c0.296-0.919,0.598-1.837,0.883-2.758c0.29-0.938,0.564-1.883,0.844-2.826c0.22-0.742,0.447-1.483,0.66-2.226
	c0.309-1.082,0.603-2.17,0.898-3.259c0.166-0.609,0.338-1.218,0.5-1.828c0.318-1.21,0.62-2.425,0.92-3.642
	c0.122-0.493,0.252-0.985,0.371-1.479c0.313-1.298,0.608-2.603,0.9-3.91c0.093-0.42,0.195-0.838,0.286-1.259
	c0.298-1.362,0.578-2.731,0.853-4.103c0.075-0.368,0.155-0.736,0.227-1.105c0.276-1.404,0.532-2.813,0.785-4.224
	c0.061-0.344,0.128-0.685,0.188-1.028c0.247-1.419,0.475-2.846,0.699-4.273c0.053-0.342,0.112-0.681,0.164-1.023
	c0.215-1.415,0.412-2.837,0.603-4.26c0.048-0.358,0.102-0.716,0.149-1.074c0.181-1.397,0.345-2.799,0.503-4.203
	c0.045-0.39,0.095-0.776,0.137-1.165c0.147-1.359,0.275-2.724,0.4-4.089c0.04-0.437,0.088-0.875,0.126-1.314
	c0.114-1.322,0.209-2.65,0.302-3.978c0.033-0.483,0.076-0.964,0.108-1.447c0.083-1.297,0.147-2.599,0.211-3.901
	c0.024-0.515,0.06-1.03,0.081-1.545c0.057-1.328,0.095-2.662,0.13-3.996c0.013-0.489,0.037-0.976,0.047-1.465
	c0.039-1.819,0.059-3.641,0.059-5.469c0-1.973-0.026-3.942-0.071-5.906c-0.014-0.644-0.045-1.287-0.065-1.93
	c-0.041-1.325-0.081-2.651-0.142-3.97c-0.032-0.71-0.08-1.417-0.119-2.127c-0.07-1.263-0.138-2.527-0.226-3.783
	c-0.047-0.661-0.105-1.32-0.156-1.979c-0.104-1.329-0.209-2.658-0.333-3.981c-0.05-0.533-0.108-1.063-0.161-1.595
	c-0.148-1.483-0.304-2.963-0.477-4.438c-0.04-0.341-0.085-0.679-0.126-1.02c-0.21-1.717-0.433-3.433-0.678-5.139
	c-0.01-0.068-0.02-0.134-0.029-0.201C208.115,110.619,121.671,23.86,12.518,7.574c-0.366-0.055-0.73-0.112-1.096-0.165
	c-0.565-0.081-1.134-0.151-1.701-0.228C7.305,6.956,4.894,7.719,3.055,9.322C1.114,11.012,0,13.462,0,16.035V49.74
	c102.94,12.259,183.027,100.078,183.027,206.261c0,106.187-80.087,194.005-183.027,206.263v33.693
	C0,498.534,1.116,500.985,3.062,502.676z"/>
<g>
	<path style="opacity:0.1;fill:#231F20;enable-background:new    ;" d="M465.489,256.001c0-14.669,9.826-27.037,23.255-30.9
		c-2.828-0.814-5.813-1.259-8.904-1.259c-17.763,0-32.159,14.401-32.159,32.159c0,17.763,14.396,32.163,32.159,32.163
		c3.091,0,6.076-0.444,8.904-1.259C475.315,283.043,465.489,270.672,465.489,256.001z"/>
	<path style="opacity:0.1;fill:#231F20;enable-background:new    ;" d="M284.219,256.001c0-36.717,27.513-66.989,63.044-71.377
		c-2.921-0.361-5.887-0.569-8.904-0.569c-39.735,0-71.948,32.21-71.948,71.946c0,39.735,32.213,71.948,71.948,71.948
		c3.017,0,5.984-0.208,8.904-0.569C311.731,322.991,284.219,292.719,284.219,256.001z"/>
	<path style="opacity:0.1;fill:#231F20;enable-background:new    ;" d="M20.871,502.676c-1.946-1.692-3.062-4.143-3.062-6.719
		V472.98v-10.716V49.74V37.99V16.035c0-2.574,1.114-5.023,3.055-6.713c0.116-0.101,0.239-0.188,0.358-0.282
		c-2.886-0.534-5.786-1.032-8.704-1.467c-0.366-0.055-0.73-0.112-1.096-0.165c-0.565-0.081-1.134-0.151-1.701-0.228
		C7.305,6.956,4.894,7.719,3.055,9.322C1.114,11.012,0,13.462,0,16.035V37.99v11.752v412.524v10.716v22.977
		c0,2.577,1.116,5.029,3.062,6.719c1.631,1.417,3.709,2.185,5.842,2.185c0.393,0,0.787-0.029,1.182-0.081
		c0.102-0.016,0.205-0.029,0.306-0.043c3.614-0.511,7.211-1.133,10.8-1.804C21.084,502.847,20.974,502.767,20.871,502.676z"/>
</g>
</svg>